<svg xmlns="http://www.w3.org/2000/svg" version="1.0" width="300.000000pt" height="300.000000pt" viewBox="0 0 300 300" preserveAspectRatio="xMidYMid meet">
  <rect width="300" height="300" rx="60" ry="60" fill="#FDF6EC"/>
  <g transform="translate(-60,360) scale(0.14,-0.14)" fill="#B6A28A" stroke="none">
    <path d="M1318 2437 c-37 -7 -70 -16 -74 -20 -15 -14 20 -99 59 -144 143 -161 410 -104 472 101 l14 45 -47 11 c-72 17 -345 22 -424 7z m327 -28 c87 -12 103 -25 81 -67 -8 -16 -36 -48 -61 -70 -96 -84 -241 -78 -326 15 -75 81 -72 109 10 118 31 3 65 7 76 9 46 7 155 5 220 -5z"/>
    <path d="M990 2302 c-82 -55 -222 -194 -280 -278 l-51 -74 53 -25 c94 -44 222 -29 299 34 19 16 48 53 64 82 40 72 43 179 6 252 -13 26 -26 47 -30 47 -3 -1 -31 -17 -61 -38z m71 -52 c14 -52 9 -140 -10 -178 -38 -74 -129 -137 -204 -141 -41 -2 -113 15 -122 28 -15 25 101 165 215 260 80 66 109 74 121 31z"/>
    <path d="M1939 2288 c-28 -63 -31 -163 -7 -219 61 -143 236 -209 376 -144 45 21 52 27 43 42 -24 46 -109 151 -169 212 -62 62 -192 161 -211 161 -5 0 -19 -24 -32 -52z m106 -38 c103 -71 264 -252 252 -284 -8 -19 -91 -40 -135 -33 -151 25 -249 178 -201 316 14 39 29 39 84 1z"/>
    <path d="M1454 2076 c-59 -50 -21 -146 57 -146 29 0 43 7 63 31 34 40 33 74 -3 110 -37 36 -79 38 -117 5z m88 -33 c23 -21 23 -36 -2 -58 -42 -38 -102 14 -64 56 21 23 42 24 66 2z"/>
    <path d="M1105 1938 c-49 -28 -60 -87 -24 -132 16 -20 29 -26 60 -26 83 0 118 83 60 141 -31 30 -63 36 -96 17z m71 -53 c18 -28 14 -49 -14 -64 -16 -8 -26 -6 -46 10 -22 18 -24 23 -14 42 22 44 50 48 74 12z"/>
    <path d="M1819 1921 c-33 -33 -37 -65 -12 -101 23 -35 33 -40 74 -40 62 0 103 65 74 119 -30 59 -89 68 -136 22z m83 -23 c38 -31 22 -78 -27 -78 -35 0 -51 34 -30 66 17 27 34 30 57 12z"/>
    <path d="M569 1683 c-18 -112 -18 -263 0 -375 16 -100 18 -101 96 -64 208 97 220 376 21 491 -23 12 -55 26 -72 29 l-31 7 -14 -88z m99 23 c63 -32 117 -116 125 -192 10 -87 -56 -202 -135 -235 -37 -15 -48 -5 -59 53 -12 63 -5 338 10 366 14 26 22 27 59 8z"/>
    <path d="M2384 1758 c-56 -18 -126 -80 -157 -138 -26 -50 -28 -63 -25 -136 3 -69 7 -88 33 -129 36 -59 101 -110 156 -125 23 -6 43 -9 46 -7 2 3 11 45 20 94 25 145 5 455 -30 452 -7 -1 -26 -6 -43 -11z m42 -107 c15 -87 16 -210 1 -301 -10 -62 -15 -75 -32 -78 -30 -4 -101 53 -133 106 -22 39 -27 59 -27 117 0 85 28 142 94 193 64 49 82 42 97 -37z"/>
    <path d="M935 1555 c-54 -53 -16 -145 59 -145 26 0 40 7 60 31 34 40 33 74 -3 110 -38 37 -82 39 -116 4z m89 -28 c27 -19 17 -59 -17 -71 -23 -8 -31 -6 -49 11 -20 21 -20 23 -4 47 18 29 43 33 70 13z"/>
    <path d="M1975 1555 c-53 -52 -16 -145 57 -145 37 1 59 14 76 47 19 35 14 63 -17 94 -38 37 -82 39 -116 4z m93 -27 c21 -21 14 -57 -14 -70 -31 -14 -57 -1 -62 31 -7 42 46 69 76 39z"/>
    <path d="M1093 1195 c-58 -41 -41 -132 29 -149 87 -22 142 82 76 144 -26 24 -75 26 -105 5z m92 -55 c9 -28 -12 -60 -38 -60 -48 0 -64 56 -24 83 26 17 52 8 62 -23z"/>
    <path d="M1816 1179 c-34 -40 -33 -74 3 -110 56 -56 145 -22 145 56 0 79 -97 115 -148 54z m91 -17 c24 -15 20 -69 -7 -77 -50 -16 -87 29 -54 66 18 20 41 24 61 11z"/>
    <path d="M737 1075 c-83 -31 -83 -33 -25 -115 28 -40 83 -105 122 -144 78 -78 208 -172 224 -162 19 11 52 115 52 161 0 102 -68 206 -164 251 -59 27 -148 31 -209 9z m203 -45 c48 -24 104 -88 120 -135 16 -48 8 -161 -13 -182 -14 -14 -18 -14 -40 3 -14 11 -35 26 -48 34 -26 16 -141 129 -174 170 -47 58 -65 89 -59 103 14 38 144 43 214 7z"/>
    <path d="M2094 1074 c-145 -52 -220 -232 -155 -372 14 -29 29 -52 34 -52 16 0 140 92 200 149 68 65 191 226 183 240 -4 5 -31 19 -62 30 -63 24 -140 26 -200 5z m184 -35 c12 -5 22 -15 22 -24 0 -38 -165 -217 -262 -283 l-47 -32 -20 29 c-33 46 -29 137 8 199 44 70 90 105 162 122 35 9 98 4 137 -11z"/>
    <path d="M1474 1046 c-81 -35 -56 -155 33 -156 45 0 62 9 78 41 21 39 19 60 -8 90 -28 33 -63 42 -103 25z m71 -46 c15 -17 16 -24 7 -45 -15 -34 -37 -41 -65 -22 -27 18 -31 45 -9 70 20 23 45 22 67 -3z"/>
    <path d="M1434 800 c-88 -27 -177 -122 -190 -202 l-6 -35 73 -12 c133 -22 229 -24 348 -7 63 9 118 19 122 23 12 13 -29 107 -65 149 -18 21 -55 50 -81 63 -53 26 -151 36 -201 21z m194 -59 c40 -20 111 -102 112 -128 0 -19 -29 -30 -100 -38 -138 -15 -339 -1 -355 26 -19 30 86 144 150 162 43 12 150 0 193 -22z"/>
  </g>
</svg>